<?xml version="1.0" encoding="UTF-8"?>
<svg version="1.1" xmlns="http://www.w3.org/2000/svg" width="256" height="256">
<path d="M0 0 C22.03852652 18.81159856 36.46579334 41.06373377 44.3515625 68.91015625 C44.69316406 70.08835937 45.03476563 71.2665625 45.38671875 72.48046875 C52.92056498 104.36791093 46.53869956 140.38566089 29.7109375 168.21484375 C19.22380228 184.89578124 5.20171214 199.62660904 -11.6484375 209.91015625 C-12.7209375 210.59335938 -13.7934375 211.2765625 -14.8984375 211.98046875 C-42.75922794 228.94201478 -78.25061189 233.92648545 -110.03027344 226.74707031 C-117.81941729 224.77736357 -125.2980262 222.14033195 -132.6484375 218.91015625 C-133.30263672 218.62688477 -133.95683594 218.34361328 -134.63085938 218.05175781 C-164.72593234 204.76588414 -188.43262339 179.18859339 -200.51953125 148.71386719 C-202.47890077 143.51521742 -204.1350825 138.25415274 -205.6484375 132.91015625 C-205.99003906 131.73195312 -206.33164063 130.55375 -206.68359375 129.33984375 C-214.21743998 97.45240157 -207.83557456 61.43465161 -191.0078125 33.60546875 C-172.71931393 4.51560818 -145.47270495 -14.79440926 -112.6484375 -24.08984375 C-111.47023438 -24.43144531 -110.29203125 -24.77304687 -109.078125 -25.125 C-71.91216204 -33.90596927 -29.43835184 -24.14652242 0 0 Z " fill="#5FBB5D" transform="translate(208.6484375,27.08984375)"/>
<path d="M0 0 C1.29349365 0.00523682 2.5869873 0.01047363 3.91967773 0.01586914 C4.9496714 0.01799156 4.9496714 0.01799156 6.00047302 0.02015686 C8.20144949 0.0257706 10.40232557 0.03832532 12.60327148 0.05102539 C14.09220231 0.05603863 15.58113473 0.06060184 17.07006836 0.06469727 C20.72700223 0.07574446 24.38387707 0.09301826 28.04077148 0.11352539 C28.14478271 0.90033691 28.24879395 1.68714844 28.35595703 2.49780273 C28.80609435 5.43688746 28.80609435 5.43688746 31.99780273 6.96508789 C33.27781995 7.56728049 34.56339827 8.15774396 35.85327148 8.73852539 C43.91089211 12.6947142 49.81467592 17.71320919 56.04077148 24.11352539 C57.18352539 25.27754883 57.18352539 25.27754883 58.34936523 26.46508789 C72.01212202 41.08346283 78.65302347 60.94502632 78.52832031 80.85107422 C77.7759637 99.61932153 69.6612666 118.34105811 57.04077148 132.11352539 C56.47745117 132.74516602 55.91413086 133.37680664 55.33374023 134.02758789 C50.35931149 139.31655896 44.36619847 144.03762239 37.80249023 147.18774414 C35.85920846 147.99021271 35.85920846 147.99021271 35.04077148 150.11352539 C36.69077148 150.77352539 38.34077148 151.43352539 40.04077148 152.11352539 C39.71077148 153.43352539 39.38077148 154.75352539 39.04077148 156.11352539 C32.84558675 155.69764493 27.77387837 154.51100645 22.04077148 152.11352539 C22.4704683 146.52746673 24.59906061 141.52002853 28.04077148 137.11352539 C30.20874023 136.35180664 30.20874023 136.35180664 32.04077148 136.11352539 C33.16577148 140.86352539 33.16577148 140.86352539 32.04077148 143.11352539 C49.45159059 133.66722992 62.16593589 119.18875835 68.36499023 100.25805664 C73.85041131 81.74964385 72.16328399 61.72911979 63.22412109 44.63647461 C60.32175818 39.35765825 57.0999868 34.58126987 53.04077148 30.11352539 C52.3872168 29.36844727 51.73366211 28.62336914 51.06030273 27.85571289 C43.42573134 19.65098224 34.80768717 14.18978701 24.04077148 11.11352539 C16.61577148 22.00352539 16.61577148 22.00352539 9.04077148 33.11352539 C17.29077148 33.44352539 25.54077148 33.77352539 34.04077148 34.11352539 C35.03077148 36.09352539 35.03077148 36.09352539 36.04077148 38.11352539 C35.40010742 38.81477539 34.75944336 39.51602539 34.09936523 40.23852539 C29.01848728 45.81158973 23.98490116 51.4185349 19.04077148 57.11352539 C17.72882009 58.61400524 16.41632915 60.11401353 15.10327148 61.61352539 C14.51674805 62.28383789 13.93022461 62.95415039 13.32592773 63.64477539 C12.90182617 64.12946289 12.47772461 64.61415039 12.04077148 65.11352539 C13.53330357 69.31975216 15.65151908 73.00938484 17.91967773 76.83227539 C21.66692349 84.45733295 21.11663113 95.75603515 19.46264648 103.99243164 C17.17452535 110.30556586 13.09253247 115.65310393 9.16186523 121.03540039 C4.27486455 128.12740139 3.60821304 133.12436259 3.60131836 141.48071289 C3.47079593 146.82763163 2.55053638 149.83906312 -0.95922852 154.11352539 C-4.35922852 157.11352539 -4.35922852 157.11352539 -6.95922852 157.11352539 C-7.00047852 157.85602539 -7.04172852 158.59852539 -7.08422852 159.36352539 C-7.95922852 162.11352539 -7.95922852 162.11352539 -10.45922852 164.42602539 C-14.79862421 166.51823403 -18.22431601 167.13375516 -22.95922852 166.11352539 C-25.8777747 163.92461576 -27.63422638 162.53540973 -28.45922852 158.92602539 C-28.62422852 158.32790039 -28.78922852 157.72977539 -28.95922852 157.11352539 C-30.62277641 156.43911408 -32.28989793 155.77349329 -33.95922852 155.11352539 C-36.02172852 152.73852539 -36.02172852 152.73852539 -37.95922852 150.11352539 C-40.77401158 147.08457405 -43.74569777 144.76699461 -47.14672852 142.42602539 C-65.55828871 129.10026137 -76.37063849 109.4956943 -79.95922852 87.11352539 C-82.04405284 65.84410553 -75.39655546 44.63679364 -61.95922852 28.11352539 C-54.69717292 19.58558319 -46.76825276 13.49266772 -36.95922852 8.11352539 C-38.60922852 7.12352539 -40.25922852 6.13352539 -41.95922852 5.11352539 C-41.62922852 3.79352539 -41.29922852 2.47352539 -40.95922852 1.11352539 C-34.65655413 1.48128708 -29.62671008 2.27978461 -23.95922852 5.11352539 C-24.29092046 11.41567236 -27.6324684 15.96569475 -30.95922852 21.11352539 C-32.27922852 20.78352539 -33.59922852 20.45352539 -34.95922852 20.11352539 C-34.62922852 18.13352539 -34.29922852 16.15352539 -33.95922852 14.11352539 C-41.38345764 17.68217659 -47.09729799 22.36560323 -52.95922852 28.11352539 C-53.66176758 28.7799707 -54.36430664 29.44641602 -55.08813477 30.13305664 C-68.13987335 43.49129398 -73.62419339 62.54053073 -73.50268555 80.78540039 C-72.82008463 101.35538445 -63.38276516 119.3308003 -48.76782227 133.57446289 C-45.74237503 136.14903354 -42.41291915 138.16689976 -38.95922852 140.11352539 C-39.34038309 129.83967721 -42.52069504 123.81272328 -48.45141602 115.71899414 C-55.70101831 105.7209772 -56.75182149 96.17855182 -55.95922852 84.11352539 C-54.42373516 74.77043869 -48.46920831 66.53122414 -41.18188477 60.68774414 C-30.24099941 52.93875152 -17.86043676 52.44254062 -4.85766602 54.63696289 C-4.23118164 54.79422852 -3.60469727 54.95149414 -2.95922852 55.11352539 C-2.29922852 53.79352539 -1.63922852 52.47352539 -0.95922852 51.11352539 C-10.52922852 51.11352539 -20.09922852 51.11352539 -29.95922852 51.11352539 C-29.07855069 44.94878062 -27.98169204 41.79538858 -24.83422852 36.80102539 C-23.93526369 35.32687903 -23.03826735 33.85153116 -22.14282227 32.37524414 C-21.64379395 31.55717285 -21.14476562 30.73910156 -20.63061523 29.89624023 C-16.94834695 23.76558089 -13.43037686 17.53676791 -9.87591553 11.33139038 C-8.91421371 9.65379147 -7.95043709 7.97738248 -6.98657227 6.30102539 C-6.42703857 5.32520508 -5.86750488 4.34938477 -5.29101562 3.34399414 C-3.37158561 0.12934472 -3.37158561 0.12934472 0 0 Z " fill="#F8FCF8" transform="translate(128.959228515625,44.886474609375)"/>
<path d="M0 0 C-1.61116859 6.11329927 -3.29289721 12.11617651 -5.546875 18.02734375 C-6.07953794 20.34626429 -5.74007964 21.76475947 -5 24 C-2.07299167 22.69113024 -0.12815685 21.33773912 2.015625 18.9609375 C2.54414062 18.38085938 3.07265625 17.80078125 3.6171875 17.203125 C4.15601563 16.59984375 4.69484375 15.9965625 5.25 15.375 C5.80429688 14.76398438 6.35859375 14.15296875 6.9296875 13.5234375 C8.2917841 12.02043435 9.64661601 10.5108532 11 9 C14 10 14 10 15.3515625 12.1796875 C15.77179688 13.06914063 16.19203125 13.95859375 16.625 14.875 C17.26308594 16.20144531 17.26308594 16.20144531 17.9140625 17.5546875 C21.12083435 24.77569173 21.29855549 33.40661729 18.625 40.875 C15.89695018 46.88461701 11.99282088 52.27348444 8.2421875 57.6796875 C4.94365116 62.49066483 3.6790298 66.11507509 3 72 C0.03 72 -2.94 72 -6 72 C-6 64.74 -6 57.48 -6 50 C-3.69 49.34 -1.38 48.68 1 48 C2.38142556 46.83622098 2.38142556 46.83622098 2.25 43.625 C2.27840309 40.15119737 2.27840309 40.15119737 0.875 38.0625 C-1.88980433 36.49577755 -3.88188517 36.61023565 -7 37 C-9.53785617 38.66273336 -9.9318384 39.73355011 -10.6875 42.6875 C-10.790625 43.450625 -10.89375 44.21375 -11 45 C-12.32 45 -13.64 45 -15 45 C-15.268125 44.05125 -15.53625 43.1025 -15.8125 42.125 C-16.74986588 38.74732727 -16.74986588 38.74732727 -20 37 C-22.83079592 36.64615051 -24.36830089 36.6079109 -26.8125 38.125 C-28.57844751 40.91333817 -28.46181576 42.76728968 -28 46 C-25.43713439 49.38664385 -24.22335459 49.94416135 -20 51 C-20 57.93 -20 64.86 -20 72 C-22.97 72 -25.94 72 -29 72 C-29.185625 70.741875 -29.37125 69.48375 -29.5625 68.1875 C-30.9462648 61.92620965 -34.45106578 57.23855156 -38 52 C-44.30435156 42.07886625 -47.62736952 34.28557901 -45.53515625 22.34765625 C-43.2005388 13.38217265 -37.68577014 6.15434585 -30 1 C-19.99533745 -4.51626942 -10.40674432 -4.31687172 0 0 Z " fill="#62BC60" transform="translate(124,107)"/>
<path d="M0 0 C6.6 0 13.2 0 20 0 C18.29798203 4.25504493 16.68388965 7.13005831 14.0859375 10.81640625 C13.31747154 11.92105927 12.54924956 13.02588205 11.78125 14.13085938 C10.57542031 15.85364914 9.36669142 17.57426053 8.15332031 19.29174805 C6.97686082 20.96109367 5.81207143 22.63810562 4.6484375 24.31640625 C3.94895996 25.31099854 3.24948242 26.30559082 2.52880859 27.33032227 C0.66870528 30.06578378 0.66870528 30.06578378 1 34 C9.25 34.33 17.5 34.66 26 35 C19.26130119 43.98493175 19.26130119 43.98493175 16.59765625 46.74609375 C16.02031738 47.35187256 15.44297852 47.95765137 14.84814453 48.58178711 C14.25888184 49.19417236 13.66961914 49.80655762 13.0625 50.4375 C8.04116543 55.7276695 3.27244307 61.07318988 -1 67 C-2.11411001 63.65766996 -1.9254397 63.07824676 -0.78515625 59.91015625 C-0.51123047 59.12576172 -0.23730469 58.34136719 0.04492188 57.53320312 C0.33947266 56.71787109 0.63402344 55.90253906 0.9375 55.0625 C1.51469831 53.45120805 2.08651776 51.83797683 2.65234375 50.22265625 C2.91007568 49.50859619 3.16780762 48.79453613 3.43334961 48.05883789 C4.17690739 45.71313288 4.17690739 45.71313288 4 42 C-4.91 41.67 -13.82 41.34 -23 41 C-17.99749209 31.45817935 -12.7774536 22.11779156 -7.27734375 12.85546875 C-4.76307863 8.61749044 -2.35961833 4.32596693 0 0 Z " fill="#64BD62" transform="translate(129,50)"/>
<path d="M0 0 C9.9 0 19.8 0 30 0 C30 9 30 9 28.6875 11.53125 C24.30150212 13.92824884 19.91093808 13.57613857 15 13.5 C14.00226563 13.51546875 13.00453125 13.5309375 11.9765625 13.546875 C7.91229279 13.52508267 4.91294929 13.4989374 1.3125 11.53125 C0 9 0 9 0 0 Z " fill="#66BE64" transform="translate(96,184)"/>
<path d="M0 0 C1.32 0 2.64 0 4 0 C4 6.93 4 13.86 4 21 C2.68 21 1.36 21 0 21 C0 14.07 0 7.14 0 0 Z " fill="#79C577" transform="translate(109,158)"/>
<path d="M0 0 C9.24 0 18.48 0 28 0 C27.34 1.65 26.68 3.3 26 5 C23.03 4.34 20.06 3.68 17 3 C17 2.34 17 1.68 17 1 C11.39 1 5.78 1 0 1 C0 0.67 0 0.34 0 0 Z " fill="#82CA81" transform="translate(100,96)"/>
<path d="M0 0 C3.3 0 6.6 0 10 0 C9.67 0.99 9.34 1.98 9 3 C6.1875 3.625 6.1875 3.625 3 4 C2.01 3.34 1.02 2.68 0 2 C0 1.34 0 0.68 0 0 Z " fill="#7DC77B" transform="translate(106,202)"/>
</svg>
